HIERARCHY
ROOT Hips
{
	OFFSET 0.00 0.00 0.00
	CHANNELS 6 Xposition Yposition Zposition Yrotation Xrotation Zrotation
	JOINT LHipJoint
	{
		OFFSET	0.0000	0.0000	0.0000
		CHANNELS 3 Yrotation Xrotation Zrotation
		JOINT LeftUpLeg
		{
			OFFSET	1.0138	-0.0809	-0.0827
			CHANNELS 3 Yrotation Xrotation Zrotation
			JOINT LeftLeg
			{
				OFFSET	0.4110	-3.9095	0.3245
				CHANNELS 3 Yrotation Xrotation Zrotation
				JOINT LeftFoot
				{
					OFFSET	0.3810	-4.0555	-0.1470
					CHANNELS 3 Yrotation Xrotation Zrotation
					JOINT LeftToeBase
					{
						OFFSET	0.1396	-0.4462	1.3079
						CHANNELS 3 Yrotation Xrotation Zrotation
						End Site
						{
							OFFSET 0.0161 -0.0248 0.1809
						}
					}
				}
			}
		}
	}
	JOINT LowerBack
	{
		OFFSET	0.0000	0.7977	-0.3873
		CHANNELS 3 Yrotation Xrotation Zrotation
		JOINT Spine
		{
			OFFSET	0.0000	1.4131	0.1715
			CHANNELS 3 Yrotation Xrotation Zrotation
			JOINT Spine1
			{
				OFFSET	0.0000	1.4392	-0.1032
				CHANNELS 3 Yrotation Xrotation Zrotation
				JOINT LeftShoulder
				{
					OFFSET	0.2274	1.0382	0.4032
					CHANNELS 3 Yrotation Xrotation Zrotation
					JOINT LeftArm
					{
						OFFSET	1.4730	-0.2267	-0.0231
						CHANNELS 3 Yrotation Xrotation Zrotation
						JOINT LeftForeArm
						{
							OFFSET	1.6131	-1.8059	0.0081
							CHANNELS 3 Yrotation Xrotation Zrotation
							JOINT LeftHand
							{
								OFFSET	1.2197	-1.2423	1.6317
								CHANNELS 3 Yrotation Xrotation Zrotation
								JOINT LThumb
								{
									OFFSET	0.0109	-0.0753	0.4387
									CHANNELS 3 Yrotation Xrotation Zrotation
									End Site
									{
										OFFSET -0.2090 -0.0868 0.2097
									}
								}
								JOINT LeftFingerBase
								{
									OFFSET	0.1071	-0.1567	0.2607
									CHANNELS 3 Yrotation Xrotation Zrotation
									JOINT LeftHandFinger1
									{
										OFFSET	0.1706	-0.2492	0.6830
										CHANNELS 3 Yrotation Xrotation Zrotation
										End Site
										{
											OFFSET 0.0335 -0.1507 0.2071
										}
									}
								}
							}
						}
					}
				}
				JOINT Neck
				{
					OFFSET	0.0000	1.7498	0.2381
					CHANNELS 3 Yrotation Xrotation Zrotation
					JOINT Neck1
					{
						OFFSET	0.0000	0.5043	0.1959
						CHANNELS 3 Yrotation Xrotation Zrotation
						JOINT Head
						{
							OFFSET	0.0000	0.5044	0.1959
							CHANNELS 3 Yrotation Xrotation Zrotation
							End Site
							{
								OFFSET 0.0000 1.4798 -0.0693
							}
						}
					}
				}
				JOINT RightShoulder
				{
					OFFSET	-0.2274	1.0382	0.4032
					CHANNELS 3 Yrotation Xrotation Zrotation
					JOINT RightArm
					{
						OFFSET	-1.4730	-0.2267	-0.0231
						CHANNELS 3 Yrotation Xrotation Zrotation
						JOINT RightForeArm
						{
							OFFSET	-1.6131	-1.8059	0.0081
							CHANNELS 3 Yrotation Xrotation Zrotation
							JOINT RightHand
							{
								OFFSET	-1.2197	-1.2423	1.6317
								CHANNELS 3 Yrotation Xrotation Zrotation
								JOINT RThumb
								{
									OFFSET	-0.0109	-0.0753	0.4387
									CHANNELS 3 Yrotation Xrotation Zrotation
									End Site
									{
										OFFSET 0.2090 -0.0868 0.2097
									}
								}
								JOINT RightFingerBase
								{
									OFFSET	-0.1071	-0.1567	0.2607
									CHANNELS 3 Yrotation Xrotation Zrotation
									JOINT RightHandFinger1
									{
										OFFSET	-0.1706	-0.2492	0.6830
										CHANNELS 3 Yrotation Xrotation Zrotation
										End Site
										{
											OFFSET -0.0335 -0.1507 0.2071
										}
									}
								}
							}
						}
					}
				}
			}
		}
	}
	JOINT RHipJoint
	{
		OFFSET	0.0000	0.0000	0.0000
		CHANNELS 3 Yrotation Xrotation Zrotation
		JOINT RightUpLeg
		{
			OFFSET	-1.0138	-0.0809	-0.0827
			CHANNELS 3 Yrotation Xrotation Zrotation
			JOINT RightLeg
			{
				OFFSET	-0.4110	-3.9095	0.3245
				CHANNELS 3 Yrotation Xrotation Zrotation
				JOINT RightFoot
				{
					OFFSET	-0.3810	-4.0555	-0.1470
					CHANNELS 3 Yrotation Xrotation Zrotation
					JOINT RightToeBase
					{
						OFFSET	-0.1396	-0.4462	1.3079
						CHANNELS 3 Yrotation Xrotation Zrotation
						End Site
						{
							OFFSET -0.0161 -0.0248 0.1809
						}
					}
				}
			}
		}
	}
}
MOTION
Frames: 8
Frame Time: 0.0333333
0.7560 8.5052 0.5472 -44.6970 -0.8920 -4.8998 0.0000 -0.0000 0.0000 34.5585 -6.9933 -1.7336 13.0568 21.9348 13.1138 29.8190 -13.5372 -13.6231 0.0000 -0.3964 -0.0000 0.0000 -0.0000 0.0000 -3.8277 1.2654 3.7571 -7.5529 2.7722 7.3905 -14.3593 3.5998 4.5376 5.4946 6.9674 -43.1683 19.0643 21.1891 1.4327 19.6372 -3.5370 -21.7021 15.1628 -8.7162 29.4317 4.3727 18.3150 -2.9379 -7.7887 -1.3941 -4.0064 -5.8151 0.9288 0.8183 -5.9967 0.5741 0.9639 -8.2593 -3.8345 0.1233 3.4597 4.3595 -4.4173 -4.9432 1.4031 33.2379 -23.1775 24.8542 -2.9708 -8.8915 17.3903 8.4836 -17.0635 -6.7751 -30.6831 -6.7314 16.2244 0.7054 7.9169 -1.2628 4.1124 0.0000 -0.0000 0.0000 -24.4542 -2.7628 10.1434 2.2862 20.0268 5.7498 -15.8162 -16.8877 -8.6363 0.0000 -0.4736 0.0000 
0.6960 8.5166 0.5618 -47.2664 -0.8919 -4.9113 0.0000 -0.0000 0.0000 36.4149 -6.1222 -0.2851 12.9297 21.2795 11.0403 29.7865 -13.7728 -13.4138 0.0000 -0.9892 -0.0000 0.0000 -0.0000 0.0000 -2.8044 1.2447 4.0586 -5.4980 2.6784 7.9977 -14.6105 3.5658 4.4611 5.5714 6.2761 -42.5877 18.5357 20.6969 1.2532 19.8180 -5.5856 -21.3340 14.9931 -8.8057 29.3122 4.2544 18.3842 -3.0446 -7.7851 -1.3978 -4.0034 -6.1201 1.2380 0.2135 -6.3567 0.8417 0.4139 -10.0572 -3.3195 1.1857 2.8790 4.3459 -4.9859 -3.4838 2.0676 34.5350 -23.8839 25.4534 -3.2591 -8.0304 19.6159 9.0083 -17.8033 -6.1101 -31.0779 -7.7916 15.0687 -0.2674 7.9478 -1.2311 4.1380 0.0000 -0.0000 0.0000 -26.7006 -1.8165 11.1629 0.9206 19.0658 3.5063 -15.0610 -16.4802 -7.7323 0.0000 -1.1075 0.0000 
0.6387 8.5278 0.5751 -49.8343 -0.8916 -4.9361 0.0000 -0.0000 0.0000 38.2003 -5.1350 1.9119 12.8139 20.8094 7.5258 29.8331 -14.3645 -12.7302 -0.0000 -2.1137 0.0000 0.0000 -0.0000 0.0000 -1.7198 1.2247 4.3890 -3.3188 2.5713 8.6361 -14.7282 3.5509 4.4285 5.5327 5.7541 -42.1098 17.9877 20.1817 1.0718 19.9306 -7.0597 -21.0913 14.7200 -8.9752 29.0982 4.0227 18.5862 -3.2599 -7.8008 -1.3816 -4.0165 -6.5121 1.6274 -0.3762 -6.8056 1.1702 -0.1112 -11.4509 -2.8040 1.9521 2.0769 4.3702 -5.4657 -1.6935 2.7522 35.5236 -24.1058 25.6399 -3.3511 -7.3315 21.0502 9.6018 -18.0684 -5.6279 -31.4721 -8.3958 14.3841 -0.8200 7.9579 -1.2209 4.1463 0.0000 -0.0000 0.0000 -28.4392 -0.5612 11.3033 0.0167 17.3828 2.8128 -13.5834 -15.7615 -7.5044 0.0000 -1.0668 0.0000 
0.5837 8.5385 0.5846 -52.4015 -0.8912 -4.9684 0.0000 -0.0000 0.0000 39.4992 -4.2459 4.0702 12.7451 20.4352 3.8750 29.8371 -14.7927 -11.8270 0.0000 -3.7355 0.0000 0.0000 -0.0000 0.0000 -0.6302 1.1948 4.6812 -1.1311 2.4331 9.1812 -14.4923 3.5384 4.2475 5.3750 5.2920 -41.6443 17.4856 19.7052 0.9097 19.9698 -7.7662 -21.1120 14.4951 -9.0906 28.9459 3.8486 18.7601 -3.4238 -7.8272 -1.3545 -4.0383 -6.9657 2.0701 -0.9014 -7.3101 1.5504 -0.5800 -12.4365 -2.2821 2.3728 1.3923 4.4056 -5.7583 0.1521 3.0832 35.9334 -24.2699 25.7772 -3.4196 -7.1449 21.7628 9.9892 -17.8526 -5.3029 -31.8477 -8.4143 14.3738 -0.8381 7.9490 -1.2299 4.1390 0.0000 -0.0000 0.0000 -29.4752 0.8619 10.8177 -0.4995 15.2818 3.4089 -11.9534 -14.9151 -7.8051 -0.0000 -0.6732 0.0000 
0.5298 8.5445 0.5890 -54.9649 -0.8905 -5.0314 0.0000 -0.0000 0.0000 39.6259 -4.8885 5.3452 13.0760 22.1228 2.0165 29.3621 -14.4904 -11.4376 -0.0000 -5.6516 0.0000 0.0000 -0.0000 0.0000 0.3858 1.1494 4.9290 0.9119 2.2628 9.5718 -13.8984 3.5130 3.8043 5.1154 4.8111 -41.2194 17.1547 19.3890 0.8050 20.0104 -7.5515 -21.4643 14.4408 -9.0019 29.0162 3.9025 18.7310 -3.3752 -7.8456 -1.3357 -4.0534 -7.4084 2.5166 -1.3563 -7.7906 1.9505 -0.9996 -13.0151 -1.7693 2.4160 1.2025 4.4134 -5.8448 1.5815 2.9055 35.6245 -24.6124 26.0620 -3.5635 -7.7615 21.8535 9.9930 -17.4303 -5.1345 -32.1069 -8.0089 14.8620 -0.4706 7.9308 -1.2484 4.1239 0.0000 -0.0000 0.0000 -29.5184 2.0773 10.1989 -0.2371 13.4327 4.7339 -11.1360 -14.2675 -8.3909 0.0000 -0.4359 -0.0000 
0.4760 8.5460 0.5891 -57.5293 -0.8899 -5.0988 0.0000 -0.0000 0.0000 38.3215 -7.1008 5.3272 13.7665 25.4751 2.6435 28.1004 -13.4902 -11.5021 -0.0000 -7.6712 0.0000 0.0000 -0.0000 0.0000 1.2592 1.0881 5.1046 2.6653 2.0717 9.8033 -13.1704 3.4776 3.1636 4.7653 4.3457 -40.9868 17.0817 19.3191 0.7822 20.1042 -6.3954 -22.1308 14.5278 -8.6858 29.3279 4.1963 18.4626 -3.1011 -7.8405 -1.3409 -4.0493 -7.7479 2.9084 -1.7581 -8.1499 2.3231 -1.3912 -13.1789 -1.3010 2.0949 1.6246 4.3634 -5.8125 2.3366 2.3534 34.6652 -25.0014 26.3831 -3.7290 -9.2698 21.3912 9.6457 -17.1135 -5.1855 -32.1225 -7.4802 15.4798 0.0095 7.9120 -1.2677 4.1084 0.0000 -0.0000 0.0000 -28.3023 2.6441 9.7870 1.0895 12.5383 6.2676 -11.6115 -14.1728 -9.1976 0.0000 -0.4896 -0.0000 
0.4191 8.5465 0.5840 -60.0985 -0.8896 -5.1483 0.0000 -0.0000 0.0000 35.7436 -10.2198 4.4383 14.7726 29.1286 5.2452 26.1058 -11.5004 -11.7287 0.0000 -9.5964 0.0000 0.0000 -0.0000 0.0000 1.9454 1.0184 5.1954 4.0334 1.8808 9.8950 -12.6029 3.4404 2.5307 4.3090 4.0080 -41.0926 17.2381 19.4689 0.8312 20.2013 -4.4897 -22.9818 14.6098 -8.2861 29.7240 4.5601 18.1012 -2.7595 -7.8116 -1.3705 -4.0254 -7.9010 3.1943 -2.1148 -8.3032 2.6211 -1.7576 -12.9128 -0.9102 1.4799 2.4179 4.2607 -5.7924 2.5557 1.6976 33.2954 -25.0313 26.4076 -3.7418 -11.5053 20.4388 9.1419 -17.0075 -5.5248 -31.8364 -7.0391 15.9624 0.4137 7.8964 -1.2836 4.0955 0.0000 -0.0000 0.0000 -25.6767 2.9198 9.7858 2.6223 11.8393 7.3653 -12.9789 -14.2368 -9.8129 0.0000 -0.6248 0.0000 
0.3511 8.5480 0.5682 -62.6729 -0.8899 -5.1674 0.0000 -0.0000 0.0000 32.2626 -13.3757 3.5430 15.9418 31.9970 8.4995 23.4515 -8.6592 -11.7742 -0.0000 -11.1686 -0.0000 0.0000 -0.0000 0.0000 2.4257 0.9547 5.1960 4.9807 1.7192 9.8620 -12.3648 3.4053 2.1112 3.7253 3.8603 -41.5327 17.5008 19.7197 0.9145 20.1791 -2.2384 -23.7968 14.5816 -8.0077 29.9882 4.7814 17.8634 -2.5504 -7.7742 -1.4089 -3.9945 -7.8137 3.3426 -2.4087 -8.1974 2.8130 -2.0730 -12.2056 -0.6051 0.6778 3.1720 4.1505 -5.8469 2.5971 1.1328 31.8233 -24.3325 25.8293 -3.4458 -14.1118 19.1291 8.6971 -16.9873 -6.1162 -31.3356 -6.7021 16.2755 0.7311 7.8857 -1.2947 4.0866 0.0000 -0.0000 0.0000 -21.8572 3.0246 10.3352 2.7472 11.2700 7.4153 -14.1340 -14.3344 -9.9731 -0.0000 -0.6609 0.0000 
